PathFileType	4	(X/Y/Z)	C:\Users\willi\Documents\UniDataLokal\DATA_Hans_PhD\TD06\B\3DGAIT_B_W12\marker_experimental.trc
DataRate	CameraRate	NumFrames	NumMarkers	Units	OrigDataRate	OrigDataStartFrame	OrigNumFrames
100.000000	100.000000	4	86	mm	100.000000	12	99
Frame#	Time	RBAK			C7			CLAV			T10			STRN			RASI			RPSI			LPSI			LASI			LPELV			RPELV			RTHI1			RTHI2			RTHI3			RTHI			RKNE			RPAT			RLKNEL			RLKNEM			RLPAT			RTIB1			RTIB2			RTIB3			RTIB			RANK			RHEEL			RTOE			RM5			LTHI1			LTHI2			LTHI3			LTHI			LKNE			LPAT			LLKNE			LLKNEM			LLPAT			LTIB1			LTIB2			LTIB3			LTIB			LANK			LHEEL			LTOE			LM5			*45			*46			*47			*48			*49			*50			*51			*52			*53			*54			*55			*56			*57			*58			*59			*60			*61			*62			*63			*64			*65			*66			*67			*68			*69			*70			*71			*72			*73			*74			*75			*76			*77			*78			*79			*80			*81			*82			*83			*84			*85			
		X1	Y1	Z1	X2	Y2	Z2	X3	Y3	Z3	X4	Y4	Z4	X5	Y5	Z5	X6	Y6	Z6	X7	Y7	Z7	X8	Y8	Z8	X9	Y9	Z9	X10	Y10	Z10	X11	Y11	Z11	X12	Y12	Z12	X13	Y13	Z13	X14	Y14	Z14	X15	Y15	Z15	X16	Y16	Z16	X17	Y17	Z17	X18	Y18	Z18	X19	Y19	Z19	X20	Y20	Z20	X21	Y21	Z21	X22	Y22	Z22	X23	Y23	Z23	X24	Y24	Z24	X25	Y25	Z25	X26	Y26	Z26	X27	Y27	Z27	X28	Y28	Z28	X29	Y29	Z29	X30	Y30	Z30	X31	Y31	Z31	X32	Y32	Z32	X33	Y33	Z33	X34	Y34	Z34	X35	Y35	Z35	X36	Y36	Z36	X37	Y37	Z37	X38	Y38	Z38	X39	Y39	Z39	X40	Y40	Z40	X41	Y41	Z41	X42	Y42	Z42	X43	Y43	Z43	X44	Y44	Z44	X45	Y45	Z45	X46	Y46	Z46	X47	Y47	Z47	X48	Y48	Z48	X49	Y49	Z49	X50	Y50	Z50	X51	Y51	Z51	X52	Y52	Z52	X53	Y53	Z53	X54	Y54	Z54	X55	Y55	Z55	X56	Y56	Z56	X57	Y57	Z57	X58	Y58	Z58	X59	Y59	Z59	X60	Y60	Z60	X61	Y61	Z61	X62	Y62	Z62	X63	Y63	Z63	X64	Y64	Z64	X65	Y65	Z65	X66	Y66	Z66	X67	Y67	Z67	X68	Y68	Z68	X69	Y69	Z69	X70	Y70	Z70	X71	Y71	Z71	X72	Y72	Z72	X73	Y73	Z73	X74	Y74	Z74	X75	Y75	Z75	X76	Y76	Z76	X77	Y77	Z77	X78	Y78	Z78	X79	Y79	Z79	X80	Y80	Z80	X81	Y81	Z81	X82	Y82	Z82	X83	Y83	Z83	X84	Y84	Z84	X85	Y85	Z85	X86	Y86	Z86	

13	0.12	562.9284057617186	1022.330627441406	-166.7890777587889	574.1077270507811	1118.534912109375	-266.7975769042968	680.5900268554686	1060.959106445312	-275.3033447265624	563.0891723632812	889.1132202148438	-257.243194580078	728.6295166015624	949.0336303710938	-285.8110046386718	665.7255859375	750.4619140625	-173.7630310058593	537.1356201171875	790.7798461914062	-208.1357879638671	533.0917358398438	793.0354614257812	-297.2794189453124	640.6735229492189	749.1854858398438	-370.0105895996093	609.6436767578126	791.265380859375	-380.1207885742186	622.68359375	799.3026733398438	-149.331817626953	765.465087890625	509.5741271972657	-228.045684814453	746.4531860351562	542.843017578125	-169.0507202148436	771.482666015625	448.2853393554688	-192.0598144531249	735.0003662109375	459.1910095214844	-126.9833984374999	761.5269775390625	401.2794494628907	-182.694869995117	794.536376953125	424.3768920898438	-236.5535583496092	768.2691040039062	377.1708984375001	-188.7274475097655	746.4425048828125	364.3977966308594	-282.3607177734374	799.8750610351562	358.1060180664063	-230.9080810546874	811.6964721679688	280.2175903320313	-220.2254638671874	791.5807495117188	231.5437622070313	-180.1334228515624	812.3938598632812	186.9899139404297	-225.5212249755858	781.8319702148438	179.1525421142579	-148.7754974365233	790.51171875	56.16161727905278	-200.9770507812499	737.5328979492188	35.69805908203129	-239.3685455322264	898.9800415039062	47.19564437866217	-232.7650604248045	884.6038818359375	24.13442993164068	-188.8720092773436	556.6782836914064	529.953857421875	-404.3661804199218	582.9077148437501	471.6775207519532	-385.0729370117186	526.7799682617189	436.3770751953126	-398.7089233398436	523.7451782226564	482.0315856933594	-440.3172607421874	496.9520263671876	375.6534423828126	-394.8145751953124	554.3928222656251	355.0096435546876	-369.549346923828	473.8348083496094	355.5076293945313	-394.5535278320311	492.4765625000001	337.2335815429688	-294.3350830078124	509.1243286132813	312.9235839843751	-361.8863220214843	420.4633178710938	248.3667907714844	-360.8096923828124	353.5811767578126	242.37744140625	-388.1038818359374	351.7698974609376	177.6029205322266	-354.3861999511718	301.1827087402344	221.6171875	-410.1376037597656	245.0705108642579	130.5713348388672	-355.7672729492187	216.8543243408204	167.8179779052734	-322.6271362304687	283.0638122558594	30.25208282470705	-295.3298034667968	249.7493133544922	22.90010261535646	-335.5356750488281	nan	nan	nan	nan	nan	nan	nan	nan	nan	nan	nan	nan	nan	nan	nan	nan	nan	nan	nan	nan	nan	nan	nan	nan	nan	nan	nan	nan	nan	nan	nan	nan	nan	nan	nan	nan	nan	nan	nan	nan	nan	nan	nan	nan	nan	nan	nan	nan	nan	nan	nan	nan	nan	nan	nan	nan	nan	nan	nan	nan	nan	nan	nan	nan	nan	nan	nan	nan	nan	nan	nan	nan	nan	nan	nan	nan	nan	nan	nan	nan	nan	nan	nan	nan	nan	nan	nan	nan	nan	nan	nan	nan	nan	nan	nan	nan	nan	nan	nan	nan	nan	nan	nan	nan	nan	nan	nan	nan	nan	nan	nan	nan	nan	nan	nan	nan	nan	nan	nan	nan	nan	nan	nan	
14	0.13	580.3323364257811	1023.857421875	-165.4115295410155	590.0004882812499	1119.740844726562	-265.9716186523436	696.7410278320311	1062.505859375	-275.5155029296874	579.318359375	890.8418579101562	-257.0365600585936	745.0305786132811	950.5675048828125	-285.8500671386718	681.0422973632812	752.64453125	-173.3363342285155	552.6591796875	792.4765625	-208.460479736328	548.7394409179688	794.2450561523438	-297.5531311035155	656.9045410156251	750.3456420898438	-369.4833984374999	625.8486328125001	792.4234619140625	-380.1132507324218	638.1795043945312	801.2992553710938	-149.3395233154296	779.6375122070312	510.3477783203126	-229.0499725341795	761.4140014648438	543.8158569335938	-169.9171142578124	785.326904296875	448.9588623046876	-193.1712646484374	749.53466796875	460.4380493164063	-127.6690444946288	775.2122802734375	401.9432067871094	-183.6840667724608	807.7628173828125	424.3925476074219	-238.1828765869139	781.3403930664062	377.6101989746094	-189.8783874511717	757.7653198242188	365.1641235351563	-283.1871337890624	811.7460327148438	357.5380249023438	-232.5439605712889	821.39697265625	278.9773559570313	-222.0286560058592	800.3170776367188	231.1559143066407	-181.3779449462889	818.8316040039062	185.6477508544922	-227.1903686523436	789.349609375	179.2248992919922	-149.7123870849608	792.0574951171875	56.29139328002935	-201.6721954345702	738.3512573242188	36.69429397583012	-239.6473846435545	900.5265502929688	43.90600204467779	-233.9772186279295	885.4365844726562	21.86764717102056	-188.9216918945311	580.0659179687501	528.968017578125	-405.1364440917968	608.3355102539064	471.3584289550782	-386.0363769531249	553.7282104492189	434.1647949218751	-400.6776428222655	549.6380004882814	479.9984436035157	-441.9181518554686	525.7050781250001	372.7118835449219	-397.7494201660155	583.2204589843751	352.1329650878907	-371.8016357421874	502.8924255371094	352.7622985839844	-398.0800476074218	520.14501953125	334.4537048339844	-297.4650573730468	536.5972900390626	309.9489440917969	-364.4650573730468	445.1849975585938	248.2900695800782	-363.8406066894531	378.8022460937501	243.8436126708985	-392.4790344238281	373.3335266113282	179.9508056640625	-357.6866455078124	326.1041259765626	224.7999114990235	-415.4366149902343	266.1301879882813	137.9691314697266	-361.4432983398437	239.5672454833985	177.9885864257813	-329.3597106933593	291.5016479492188	33.97433090209963	-298.3214416503906	260.6025695800782	29.75219345092775	-339.3207397460937	nan	nan	nan	nan	nan	nan	nan	nan	nan	nan	nan	nan	nan	nan	nan	nan	nan	nan	nan	nan	nan	nan	nan	nan	nan	nan	nan	nan	nan	nan	nan	nan	nan	nan	nan	nan	nan	nan	nan	nan	nan	nan	nan	nan	nan	nan	nan	nan	nan	nan	nan	nan	nan	nan	nan	nan	nan	nan	nan	nan	nan	nan	nan	nan	nan	nan	nan	nan	nan	nan	nan	nan	nan	nan	nan	nan	nan	nan	nan	nan	nan	nan	nan	nan	nan	nan	nan	nan	nan	nan	nan	nan	nan	nan	nan	nan	nan	nan	nan	nan	nan	nan	nan	nan	nan	nan	nan	nan	nan	nan	nan	nan	nan	nan	nan	nan	nan	nan	nan	nan	nan	nan	nan	
15	0.14	597.6118164062499	1025.859741210938	-164.1600036621093	605.8377075195311	1121.401733398438	-265.2744140624999	712.7283935546874	1064.421997070312	-275.8891601562499	595.338134765625	892.9609985351562	-256.821319580078	761.1693115234374	952.4596557617188	-286.1093139648436	696.2221069335938	755.1256103515625	-172.9533538818358	568.095703125	794.5345458984375	-208.7736206054686	564.1945190429688	795.8798217773438	-297.7966308593749	672.9215698242189	751.94189453125	-368.9696655273436	641.6896362304689	794.0208740234375	-380.099639892578	653.5593872070312	803.64404296875	-149.3825683593749	792.7132568359375	510.7527770996094	-229.7265014648436	775.2745361328125	544.486572265625	-170.5226440429686	797.7109375	449.2229309082032	-193.9614257812499	762.4403686523438	461.3406066894532	-128.1385498046874	787.0921020507812	402.2674255371094	-184.344284057617	819.5855102539062	424.0354003906251	-239.3097534179686	792.61962890625	377.7499389648438	-190.6742095947264	767.8501586914062	365.7379455566407	-283.7570800781249	822.0922241210938	356.7716674804688	-233.6384429931639	829.6406860351562	277.7252807617188	-223.2259979248045	807.521240234375	230.6719512939454	-182.2630920410155	824.186767578125	184.4310455322266	-228.386032104492	795.0266723632812	179.0673065185547	-150.4497222900389	793.0791015625	56.50127792358403	-202.2377929687499	739.0306396484375	37.48926925659184	-239.9800720214842	901.6275634765625	41.76150512695318	-234.6693115234373	885.9778442382812	20.45899581909185	-188.5792846679686	603.8029785156251	528.5833740234375	-405.7245178222655	634.1914062500001	471.8538208007813	-386.5625610351561	581.2760009765626	432.6505432128907	-402.2025756835936	576.0362548828126	478.5107727050782	-443.157501220703	555.4229736328126	370.4168090820313	-400.1899414062499	612.8427734375001	350.2971496582032	-372.9986877441405	533.0603637695314	350.5215454101563	-401.1186523437499	548.409423828125	332.7947387695313	-299.8407897949218	565.1792602539064	307.8109130859376	-366.098663330078	471.4987487792969	248.2895202636719	-366.4837646484374	405.7630004882813	245.4124450683594	-396.4849243164062	396.7016296386719	182.6978607177735	-360.3723754882812	353.0907897949219	227.6946411132813	-420.4715576171874	289.2905883789063	145.6453857421875	-366.9179687499999	263.7250976562501	187.6606597900391	-336.0008544921874	304.0680541992188	38.92617416381838	-302.0549621582031	275.9498901367188	37.58569335937501	-344.1711425781249	nan	nan	nan	nan	nan	nan	nan	nan	nan	nan	nan	nan	nan	nan	nan	nan	nan	nan	nan	nan	nan	nan	nan	nan	nan	nan	nan	nan	nan	nan	nan	nan	nan	nan	nan	nan	nan	nan	nan	nan	nan	nan	nan	nan	nan	nan	nan	nan	nan	nan	nan	nan	nan	nan	nan	nan	nan	nan	nan	nan	nan	nan	nan	nan	nan	nan	nan	nan	nan	nan	nan	nan	nan	nan	nan	nan	nan	nan	nan	nan	nan	nan	nan	nan	nan	nan	nan	nan	nan	nan	nan	nan	nan	nan	nan	nan	nan	nan	nan	nan	nan	nan	nan	nan	nan	nan	nan	nan	nan	nan	nan	nan	nan	nan	nan	nan	nan	nan	nan	nan	nan	nan	nan	
16	0.15	614.7337646484374	1028.296020507812	-163.0469512939452	621.5985717773436	1123.484619140625	-264.7066955566405	728.5279541015624	1066.678588867188	-276.415313720703	611.1446533203125	895.42626953125	-256.5890502929686	777.0322265624999	954.691162109375	-286.590606689453	711.2850341796875	757.8484497070312	-172.629440307617	583.4556884765625	796.911865234375	-209.0638275146483	579.4606323242188	797.917724609375	-297.9995727539061	688.7130737304689	753.9599609375	-368.4873962402343	657.1705932617189	796.0465698242188	-380.0802612304686	668.8458251953125	806.2827758789062	-149.4618988037108	804.7216186523438	510.7952880859376	-230.069366455078	788.0428466796875	544.8365478515625	-170.8584594726561	808.6419067382812	449.0856933593751	-194.4267578124999	773.70068359375	461.9002380371094	-128.4041748046874	797.2186889648438	402.2904663085938	-184.6916503906249	830.01513671875	423.3372497558594	-239.9661865234374	802.17138671875	377.6284790039063	-191.1275482177733	776.714599609375	366.1381835937501	-284.0897216796873	830.95751953125	355.8445434570313	-234.2379608154295	836.511474609375	276.4875183105469	-223.869430541992	813.3110961914062	230.1148223876954	-182.8094177246092	828.5654907226562	183.3454132080079	-229.1353912353514	799.0826416015625	178.7393493652344	-150.9884490966795	793.7215576171875	56.72552108764653	-202.6802520751952	739.5820922851562	38.08119583129887	-240.3111877441405	902.4237060546875	40.50323867797857	-235.0023040771483	886.336669921875	19.69181060791021	-188.031539916992	627.7074584960939	528.9131469726562	-406.1533203124999	660.2264404296876	473.2840270996094	-386.6818237304686	609.1581420898439	432.0054016113282	-403.2941894531249	602.6941528320314	477.7551879882813	-444.0572509765624	585.7599487304689	368.9841003417969	-402.1317749023436	642.9301147460939	349.6952514648438	-373.2696838378905	563.9500732421876	349.0043029785157	-403.6235046386718	577.0018920898438	332.3704223632813	-301.4996337890624	594.5631103515626	306.6724243164063	-366.8885803222655	499.1002502441407	248.4793243408203	-368.7116088867186	434.0977172851563	247.2034454345703	-400.0387878417968	421.6747741699219	185.8442535400391	-362.4808959960937	381.7141723632813	230.3994750976563	-425.0994567871093	314.2026062011719	153.3308868408203	-372.0033569335937	288.9152526855469	196.5339050292969	-342.2192382812499	321.3217163085938	44.7587585449219	-306.5451354980468	295.8807678222657	45.82248306274416	-349.8410949707031	nan	nan	nan	nan	nan	nan	nan	nan	nan	nan	nan	nan	nan	nan	nan	nan	nan	nan	nan	nan	nan	nan	nan	nan	nan	nan	nan	nan	nan	nan	nan	nan	nan	nan	nan	nan	nan	nan	nan	nan	nan	nan	nan	nan	nan	nan	nan	nan	nan	nan	nan	nan	nan	nan	nan	nan	nan	nan	nan	nan	nan	nan	nan	nan	nan	nan	nan	nan	nan	nan	nan	nan	nan	nan	nan	nan	nan	nan	nan	nan	nan	nan	nan	nan	nan	nan	nan	nan	nan	nan	nan	nan	nan	nan	nan	nan	nan	nan	nan	nan	nan	nan	nan	nan	nan	nan	nan	nan	nan	nan	nan	nan	nan	nan	nan	nan	nan	nan	nan	nan	nan	nan	nan	
